<svg width="75" height="19" viewBox="0 0 75 19" fill="none" xmlns="http://www.w3.org/2000/svg">
<g clip-path="url(#clip0_2_14)">
<path d="M24.7754 15H22.1094V4.54103H22.7539L23.6328 5.78121C24.0625 5.39061 24.5508 5.0911 25.0977 4.88281C25.6445 4.66797 26.2109 4.56055 26.7969 4.56055H29.1504V7.2168H26.7969C26.5169 7.2168 26.2533 7.2689 26.0059 7.373C25.7585 7.4772 25.5436 7.6204 25.3613 7.8027C25.179 7.985 25.0358 8.1999 24.9316 8.4473C24.8275 8.6947 24.7754 8.95831 24.7754 9.23831V15ZM40.3223 15H39.6777L38.6426 13.5645C38.3887 13.7923 38.1185 14.0072 37.832 14.209C37.5521 14.4043 37.2559 14.5768 36.9434 14.7266C36.6309 14.8698 36.3086 14.9837 35.9766 15.0684C35.651 15.153 35.319 15.1953 34.9805 15.1953C34.2448 15.1953 33.5514 15.0716 32.9004 14.8242C32.2559 14.5768 31.6895 14.2188 31.2012 13.75C30.7194 13.2747 30.3385 12.6953 30.0586 12.0117C29.7786 11.3281 29.6387 10.5501 29.6387 9.6777C29.6387 8.8639 29.7786 8.1185 30.0586 7.4414C30.3385 6.7578 30.7194 6.17191 31.2012 5.68361C31.6895 5.19531 32.2559 4.81772 32.9004 4.55079C33.5514 4.27735 34.2448 4.14062 34.9805 4.14062C35.319 4.14062 35.6543 4.18294 35.9863 4.26758C36.3184 4.35221 36.6406 4.4694 36.9531 4.61914C37.2656 4.76888 37.5618 4.94466 37.8418 5.1465C38.1283 5.3483 38.3952 5.56641 38.6426 5.80081L39.6777 4.56055H40.3223V15ZM37.6367 9.6777C37.6367 9.3132 37.5651 8.9616 37.4219 8.623C37.2852 8.278 37.0964 7.9753 36.8555 7.7148C36.6146 7.4479 36.3314 7.2363 36.0059 7.0801C35.6868 6.9173 35.3451 6.83591 34.9805 6.83591C34.6159 6.83591 34.2708 6.8978 33.9453 7.0215C33.6263 7.1452 33.3464 7.32751 33.1055 7.56841C32.8711 7.80921 32.6855 8.1087 32.5488 8.4668C32.4121 8.8184 32.3438 9.222 32.3438 9.6777C32.3438 10.1335 32.4121 10.5404 32.5488 10.8984C32.6855 11.25 32.8711 11.5462 33.1055 11.7871C33.3464 12.028 33.6263 12.2103 33.9453 12.334C34.2708 12.4577 34.6159 12.5195 34.9805 12.5195C35.3451 12.5195 35.6868 12.4414 36.0059 12.2852C36.3314 12.1224 36.6146 11.9108 36.8555 11.6504C37.0964 11.3835 37.2852 11.0807 37.4219 10.7422C37.5651 10.3971 37.6367 10.0423 37.6367 9.6777ZM45.0293 15H42.3633V4.54103H43.0078L43.8867 5.5566C44.3164 5.166 44.8014 4.86655 45.3418 4.65821C45.8887 4.44337 46.4583 4.33595 47.0508 4.33595C47.6888 4.33595 48.291 4.45965 48.8574 4.70704C49.4238 4.94793 49.9186 5.2832 50.3418 5.7129C50.765 6.1361 51.097 6.6341 51.3379 7.207C51.5853 7.7734 51.709 8.37891 51.709 9.02341V15H49.043V9.02341C49.043 8.75001 48.9909 8.4928 48.8867 8.252C48.7826 8.0046 48.6393 7.7897 48.457 7.6074C48.2747 7.4251 48.0632 7.2819 47.8223 7.1777C47.5814 7.0736 47.3242 7.0215 47.0508 7.0215C46.7708 7.0215 46.5072 7.0736 46.2598 7.1777C46.0124 7.2819 45.7975 7.4251 45.6152 7.6074C45.4329 7.7897 45.2897 8.0046 45.1855 8.252C45.0814 8.4928 45.0293 8.75001 45.0293 9.02341V15ZM61.0547 9.6777C61.0547 9.3132 60.9831 8.9616 60.8398 8.623C60.7031 8.278 60.5143 7.9753 60.2734 7.7148C60.0326 7.4479 59.7493 7.2363 59.4238 7.0801C59.1048 6.9173 58.763 6.83591 58.3984 6.83591C58.0339 6.83591 57.6888 6.8978 57.3633 7.0215C57.0443 7.1452 56.7643 7.32751 56.5234 7.56841C56.2891 7.80921 56.1035 8.1087 55.9668 8.4668C55.8301 8.8184 55.7617 9.222 55.7617 9.6777C55.7617 10.1139 55.8301 10.5078 55.9668 10.8594C56.1035 11.2044 56.2891 11.5007 56.5234 11.748C56.7643 11.9954 57.0443 12.1875 57.3633 12.3242C57.6888 12.4544 58.0339 12.5195 58.3984 12.5195C58.763 12.5195 59.1048 12.4414 59.4238 12.2852C59.7493 12.1224 60.0326 11.9108 60.2734 11.6504C60.5143 11.3835 60.7031 11.0807 60.8398 10.7422C60.9831 10.3971 61.0547 10.0423 61.0547 9.6777ZM63.7402 13.6816C63.7402 14.4173 63.6003 15.1074 63.3203 15.752C63.0404 16.3965 62.6562 16.9596 62.168 17.4414C61.6862 17.9232 61.1198 18.304 60.4688 18.584C59.8242 18.8639 59.1341 19.0039 58.3984 19.0039L57.0605 18.9844V16.3184L58.3789 16.3379C58.7956 16.3379 59.1504 16.2826 59.4434 16.1719C59.7363 16.0677 59.9837 15.9212 60.1855 15.7324C60.3874 15.5501 60.5469 15.3385 60.6641 15.0977C60.7878 14.8568 60.8854 14.6029 60.957 14.3359C60.8529 14.5052 60.7031 14.6452 60.5078 14.7559C60.3125 14.86 60.0944 14.9447 59.8535 15.0098C59.6191 15.0814 59.3717 15.1302 59.1113 15.1562C58.8574 15.1823 58.6198 15.1953 58.3984 15.1953C57.6628 15.1953 56.9694 15.0684 56.3184 14.8145C55.6738 14.5605 55.1074 14.1992 54.6191 13.7305C54.1374 13.2552 53.7565 12.6758 53.4766 11.9922C53.1966 11.3086 53.0566 10.5371 53.0566 9.6777C53.0566 8.89 53.1966 8.1576 53.4766 7.4805C53.7565 6.8034 54.1374 6.2174 54.6191 5.7227C55.1074 5.2279 55.6738 4.84049 56.3184 4.56055C56.9694 4.2806 57.6628 4.14062 58.3984 4.14062C58.737 4.14062 59.0723 4.18294 59.4043 4.26758C59.7363 4.35221 60.0586 4.4694 60.3711 4.61914C60.6836 4.76888 60.9798 4.94466 61.2598 5.1465C61.5462 5.3483 61.8132 5.56641 62.0605 5.80081L63.0957 4.56055H63.7402V13.6816ZM69.9414 12.4414C70.0456 12.474 70.1497 12.4967 70.2539 12.5098C70.3581 12.5163 70.4622 12.5195 70.5664 12.5195C70.8268 12.5195 71.0775 12.4837 71.3184 12.4121C71.5592 12.3405 71.7839 12.2396 71.9922 12.1094C72.207 11.9727 72.3958 11.8099 72.5586 11.6211C72.7279 11.4258 72.8646 11.2109 72.9688 10.9766L74.9219 12.9395C74.6745 13.291 74.388 13.6068 74.0625 13.8867C73.7435 14.1667 73.3952 14.4043 73.0176 14.5996C72.6465 14.7949 72.2526 14.9414 71.8359 15.0391C71.4258 15.1432 71.0026 15.1953 70.5664 15.1953C69.8307 15.1953 69.1374 15.0586 68.4863 14.7852C67.8418 14.5117 67.2754 14.1309 66.7871 13.6426C66.3053 13.1543 65.9245 12.5749 65.6445 11.9043C65.3646 11.2272 65.2246 10.485 65.2246 9.6777C65.2246 8.8509 65.3646 8.0957 65.6445 7.4121C65.9245 6.7285 66.3053 6.1458 66.7871 5.6641C67.2754 5.1823 67.8418 4.80795 68.4863 4.54103C69.1374 4.2741 69.8307 4.14062 70.5664 4.14062C71.0026 4.14062 71.429 4.19271 71.8457 4.29688C72.2624 4.40104 72.6562 4.55078 73.0273 4.74609C73.4049 4.94141 73.7565 5.1823 74.082 5.4688C74.4076 5.7487 74.694 6.06451 74.9414 6.41601L69.9414 12.4414ZM71.3086 6.94341C71.1849 6.89781 71.0612 6.8685 70.9375 6.8555C70.8203 6.8424 70.6966 6.83591 70.5664 6.83591C70.2018 6.83591 69.8568 6.90431 69.5312 7.04101C69.2122 7.17121 68.9323 7.36 68.6914 7.6074C68.457 7.8548 68.2715 8.15431 68.1348 8.50591C67.998 8.85091 67.9297 9.2415 67.9297 9.6777C67.9297 9.7754 67.9329 9.8861 67.9395 10.0098C67.9525 10.1335 67.9688 10.2604 67.9883 10.3906C68.0143 10.5143 68.0436 10.6348 68.0762 10.752C68.1087 10.8691 68.151 10.9733 68.2031 11.0645L71.3086 6.94341Z" fill="#FF6536"/>
<path d="M9.5 19C14.7467 19 19 14.7467 19 9.5C19 4.25329 14.7467 0 9.5 0C4.25329 0 0 4.25329 0 9.5C0 14.7467 4.25329 19 9.5 19Z" fill="url(#paint0_linear_2_14)"/>
</g>
<defs>
<linearGradient id="paint0_linear_2_14" x1="9.5" y1="0" x2="9.5" y2="19" gradientUnits="userSpaceOnUse">
<stop stop-color="#FF845E"/>
<stop offset="1" stop-color="#FF3C00"/>
</linearGradient>
<clipPath id="clip0_2_14">
<rect width="75" height="19" fill="white"/>
</clipPath>
</defs>
</svg>
